ffmpeg started on 2025-07-19 at 14:10:47
Report written to "D:\Convert\FFMetrics\reports\psnr_report-6.txt"
Log level: 32
Command line:
ffmpeg -hide_banner -nostdin -i "G:\\\xc0\xed\xe8\xec\xe5\\\xce\xed\xe3\xee\xe8\xed\xe3\xe8\\!_07_\xcb\xe5\xf2\xee_2017\\\xd1\xe5\xec\xfc - \xe2\xe5\xf0\xed\xee, \xf2\xf0\xe8 - \xed\xe5\xe2\xe5\xf0\xed\xee\\[AniDub]_Nana_Maru_San_Batsu_[08]_[720p_x264_Aac]_[MVO]_HEVC.mkv" -i "G:\\\xc0\xed\xe8\xec\xe5\\\xce\xed\xe3\xee\xe8\xed\xe3\xe8\\!_07_\xcb\xe5\xf2\xee_2017\\\xd1\xe5\xec\xfc - \xe2\xe5\xf0\xed\xee, \xf2\xf0\xe8 - \xed\xe5\xe2\xe5\xf0\xed\xee\\[AniDub]_Nana_Maru_San_Batsu_[08]_[720p_x264_Aac]_[MVO].mp4" -lavfi "[0:v]settb=AVTB,setpts=PTS-STARTPTS,format=pix_fmts=yuv420p10,fps=24000/1001,scale=1280:720:flags=bicubic[main];[1:v]settb=AVTB,setpts=PTS-STARTPTS,format=pix_fmts=yuv420p,fps=24000/1001,scale=1280:720:flags=bicubic[ref];[main][ref]psnr=eof_action=endall:stats_file='D\\:/Convert/FFMetrics/logs/psnr_logfile-6.txt'" -f null -
Input #0, matroska,webm, from 'G:\Аниме\Онгоинги\!_07_Лето_2017\Семь - верно, три - неверно\[AniDub]_Nana_Maru_San_Batsu_[08]_[720p_x264_Aac]_[MVO]_HEVC.mkv':
  Metadata:
    COMPATIBLE_BRANDS: isomavc1
    MAJOR_BRAND     : isom
    MINOR_VERSION   : 1
    ENCODER         : Lavf61.7.100
  Duration: 00:23:02.74, start: -0.021000, bitrate: 584 kb/s
  Stream #0:0: Video: hevc (Main 10), yuv420p10le(tv, bt709, progressive), 1280x720 [SAR 1:1 DAR 16:9], 23.98 fps, 23.98 tbr, 1k tbn (default)
      Metadata:
        HANDLER_NAME    : GPAC ISO Video Handler
        VENDOR_ID       : [0][0][0][0]
        ENCODER         : Lavc61.19.100 libx265
        BPS             : 387137
        DURATION        : 00:23:00.045708333
        NUMBER_OF_FRAMES: 33088
        NUMBER_OF_BYTES : 66783350
        _STATISTICS_WRITING_APP: mkvpropedit v66.0.0 ('Josie') 64-bit
        _STATISTICS_WRITING_DATE_UTC: 2025-07-19 10:06:38
        _STATISTICS_TAGS: BPS DURATION NUMBER_OF_FRAMES NUMBER_OF_BYTES
  Stream #0:1(eng): Audio: aac (LC), 48000 Hz, stereo, fltp (default)
      Metadata:
        HANDLER_NAME    : GPAC ISO Audio Handler
        VENDOR_ID       : [0][0][0][0]
        ENCODER         : Lavc61.19.100 aac
        BPS             : 193995
        DURATION        : 00:23:02.720000000
        NUMBER_OF_FRAMES: 64816
        NUMBER_OF_BYTES : 33530187
        _STATISTICS_WRITING_APP: mkvpropedit v66.0.0 ('Josie') 64-bit
        _STATISTICS_WRITING_DATE_UTC: 2025-07-19 10:06:38
        _STATISTICS_TAGS: BPS DURATION NUMBER_OF_FRAMES NUMBER_OF_BYTES
Input #1, mov,mp4,m4a,3gp,3g2,mj2, from 'G:\Аниме\Онгоинги\!_07_Лето_2017\Семь - верно, три - неверно\[AniDub]_Nana_Maru_San_Batsu_[08]_[720p_x264_Aac]_[MVO].mp4':
  Metadata:
    major_brand     : isom
    minor_version   : 1
    compatible_brands: isomavc1
    creation_time   : 2018-03-23T20:43:57.000000Z
  Duration: 00:23:02.72, start: 0.000000, bitrate: 1967 kb/s
  Stream #1:0[0x1](und): Video: h264 (High) (avc1 / 0x31637661), yuv420p(progressive), 1280x720 [SAR 1:1 DAR 16:9], 1774 kb/s, 23.98 fps, 23.98 tbr, 24k tbn (default)
      Metadata:
        creation_time   : 2018-03-23T20:43:57.000000Z
        handler_name    : GPAC ISO Video Handler
        vendor_id       : [0][0][0][0]
  Stream #1:1[0x2](eng): Audio: aac (LC) (mp4a / 0x6134706D), 48000 Hz, stereo, fltp, 192 kb/s (default)
      Metadata:
        creation_time   : 2018-03-23T20:43:58.000000Z
        handler_name    : GPAC ISO Audio Handler
        vendor_id       : [0][0][0][0]
Stream mapping:
  Stream #0:0 (hevc) -> settb:default
  Stream #1:0 (h264) -> settb:default
  psnr:default -> Stream #0:0 (wrapped_avframe)
  Stream #0:1 -> #0:1 (aac (native) -> pcm_s16le (native))
[swscaler @ 0000024dd0a05140] No accelerated colorspace conversion found from yuv420p to bgr48le.
[swscaler @ 0000024dd0b94780] No accelerated colorspace conversion found from yuv420p to bgr48le.
[swscaler @ 0000024dd0cb7780] No accelerated colorspace conversion found from yuv420p to bgr48le.
[swscaler @ 0000024dd0e52800] No accelerated colorspace conversion found from yuv420p to bgr48le.
[swscaler @ 0000024dd0f74900] No accelerated colorspace conversion found from yuv420p to bgr48le.
[swscaler @ 0000024dd1027080] No accelerated colorspace conversion found from yuv420p to bgr48le.
[swscaler @ 0000024dd108b040] No accelerated colorspace conversion found from yuv420p to bgr48le.
[swscaler @ 0000024dd10e6bc0] No accelerated colorspace conversion found from yuv420p to bgr48le.
[swscaler @ 0000024dd1155740] No accelerated colorspace conversion found from yuv420p to bgr48le.
[swscaler @ 0000024dd11d9040] No accelerated colorspace conversion found from yuv420p to bgr48le.
[swscaler @ 0000024dd1235040] No accelerated colorspace conversion found from yuv420p to bgr48le.
[swscaler @ 0000024dd1298040] No accelerated colorspace conversion found from yuv420p to bgr48le.
[swscaler @ 0000024dd12f3040] No accelerated colorspace conversion found from yuv420p to bgr48le.
[swscaler @ 0000024dd1376040] No accelerated colorspace conversion found from yuv420p to bgr48le.
[swscaler @ 0000024dd13e2040] No accelerated colorspace conversion found from yuv420p to bgr48le.
[swscaler @ 0000024dd149d040] No accelerated colorspace conversion found from yuv420p to bgr48le.
Output #0, null, to 'pipe:':
  Metadata:
    COMPATIBLE_BRANDS: isomavc1
    MAJOR_BRAND     : isom
    MINOR_VERSION   : 1
    encoder         : Lavf61.7.100
  Stream #0:0: Video: wrapped_avframe, yuv420p10le(tv, bt709, progressive), 1280x720 [SAR 1:1 DAR 16:9], q=2-31, 200 kb/s, 23.98 fps, 23.98 tbn
      Metadata:
        encoder         : Lavc61.19.100 wrapped_avframe
  Stream #0:1(eng): Audio: pcm_s16le, 48000 Hz, stereo, s16, 1536 kb/s (default)
      Metadata:
        HANDLER_NAME    : GPAC ISO Audio Handler
        VENDOR_ID       : [0][0][0][0]
        _STATISTICS_TAGS: BPS DURATION NUMBER_OF_FRAMES NUMBER_OF_BYTES
        BPS             : 193995
        DURATION        : 00:23:02.720000000
        NUMBER_OF_FRAMES: 64816
        NUMBER_OF_BYTES : 33530187
        _STATISTICS_WRITING_APP: mkvpropedit v66.0.0 ('Josie') 64-bit
        _STATISTICS_WRITING_DATE_UTC: 2025-07-19 10:06:38
        encoder         : Lavc61.19.100 pcm_s16le
frame=   86 fps=0.0 q=-0.0 size=N/A time=00:00:03.58 bitrate=N/A speed=6.86x    frame=  180 fps=175 q=-0.0 size=N/A time=00:00:07.50 bitrate=N/A speed=7.29x    frame=  276 fps=177 q=-0.0 size=N/A time=00:00:11.51 bitrate=N/A speed= 7.4x    frame=  369 fps=179 q=-0.0 size=N/A time=00:00:15.39 bitrate=N/A speed=7.47x    frame=  462 fps=179 q=-0.0 size=N/A time=00:00:19.26 bitrate=N/A speed=7.46x    frame=  561 fps=181 q=-0.0 size=N/A time=00:00:23.39 bitrate=N/A speed=7.53x    frame=  654 fps=180 q=-0.0 size=N/A time=00:00:27.27 bitrate=N/A speed=7.52x    frame=  761 fps=183 q=-0.0 size=N/A time=00:00:31.74 bitrate=N/A speed=7.64x    frame=  860 fps=185 q=-0.0 size=N/A time=00:00:35.86 bitrate=N/A speed= 7.7x    frame=  955 fps=184 q=-0.0 size=N/A time=00:00:39.83 bitrate=N/A speed=7.69x    frame= 1046 fps=184 q=-0.0 size=N/A time=00:00:43.62 bitrate=N/A speed=7.67x    frame= 1142 fps=184 q=-0.0 size=N/A time=00:00:47.63 bitrate=N/A speed=7.67x    frame= 1236 fps=184 q=-0.0 size=N/A time=00:00:51.55 bitrate=N/A speed=7.67x    frame= 1319 fps=182 q=-0.0 size=N/A time=00:00:55.01 bitrate=N/A speed= 7.6x    frame= 1426 fps=184 q=-0.0 size=N/A time=00:00:59.47 bitrate=N/A speed=7.67x    frame= 1519 fps=184 q=-0.0 size=N/A time=00:01:03.35 bitrate=N/A speed=7.66x    frame= 1613 fps=184 q=-0.0 size=N/A time=00:01:07.27 bitrate=N/A speed=7.66x    frame= 1712 fps=184 q=-0.0 size=N/A time=00:01:11.40 bitrate=N/A speed=7.67x    frame= 1801 fps=184 q=-0.0 size=N/A time=00:01:15.11 bitrate=N/A speed=7.66x    frame= 1896 fps=184 q=-0.0 size=N/A time=00:01:19.07 bitrate=N/A speed=7.65x    frame= 1985 fps=183 q=-0.0 size=N/A time=00:01:22.79 bitrate=N/A speed=7.63x    frame= 2083 fps=183 q=-0.0 size=N/A time=00:01:26.87 bitrate=N/A speed=7.65x    frame= 2178 fps=183 q=-0.0 size=N/A time=00:01:30.84 bitrate=N/A speed=7.64x    frame= 2272 fps=183 q=-0.0 size=N/A time=00:01:34.76 bitrate=N/A speed=7.64x    frame= 2364 fps=183 q=-0.0 size=N/A time=00:01:38.59 bitrate=N/A speed=7.64x    frame= 2462 fps=183 q=-0.0 size=N/A time=00:01:42.68 bitrate=N/A speed=7.65x    frame= 2556 fps=183 q=-0.0 size=N/A time=00:01:46.60 bitrate=N/A speed=7.65x    frame= 2653 fps=183 q=-0.0 size=N/A time=00:01:50.65 bitrate=N/A speed=7.65x    frame= 2744 fps=183 q=-0.0 size=N/A time=00:01:54.44 bitrate=N/A speed=7.65x    frame= 2844 fps=184 q=-0.0 size=N/A time=00:01:58.61 bitrate=N/A speed=7.66x    frame= 2925 fps=183 q=-0.0 size=N/A time=00:02:01.99 bitrate=N/A speed=7.62x    frame= 3038 fps=184 q=-0.0 size=N/A time=00:02:06.70 bitrate=N/A speed=7.67x    frame= 3133 fps=184 q=-0.0 size=N/A time=00:02:10.67 bitrate=N/A speed=7.67x    frame= 3227 fps=184 q=-0.0 size=N/A time=00:02:14.59 bitrate=N/A speed=7.67x    frame= 3328 fps=184 q=-0.0 size=N/A time=00:02:18.80 bitrate=N/A speed=7.69x    frame= 3428 fps=184 q=-0.0 size=N/A time=00:02:22.97 bitrate=N/A speed=7.69x    frame= 3523 fps=185 q=-0.0 size=N/A time=00:02:26.93 bitrate=N/A speed= 7.7x    frame= 3619 fps=184 q=-0.0 size=N/A time=00:02:30.94 bitrate=N/A speed=7.69x    frame= 3711 fps=184 q=-0.0 size=N/A time=00:02:34.77 bitrate=N/A speed=7.69x    frame= 3798 fps=184 q=-0.0 size=N/A time=00:02:38.40 bitrate=N/A speed=7.67x    frame= 3896 fps=184 q=-0.0 size=N/A time=00:02:42.49 bitrate=N/A speed=7.68x    frame= 3999 fps=185 q=-0.0 size=N/A time=00:02:46.79 bitrate=N/A speed= 7.7x    frame= 4098 fps=185 q=-0.0 size=N/A time=00:02:50.92 bitrate=N/A speed= 7.7x    frame= 4181 fps=184 q=-0.0 size=N/A time=00:02:54.38 bitrate=N/A speed=7.68x    frame= 4287 fps=185 q=-0.0 size=N/A time=00:02:58.80 bitrate=N/A speed= 7.7x    frame= 4391 fps=185 q=-0.0 size=N/A time=00:03:03.14 bitrate=N/A speed=7.72x    frame= 4487 fps=185 q=-0.0 size=N/A time=00:03:07.14 bitrate=N/A speed=7.71x    frame= 4582 fps=185 q=-0.0 size=N/A time=00:03:11.10 bitrate=N/A speed=7.72x    frame= 4678 fps=185 q=-0.0 size=N/A time=00:03:15.11 bitrate=N/A speed=7.71x    frame= 4774 fps=185 q=-0.0 size=N/A time=00:03:19.11 bitrate=N/A speed=7.72x    frame= 4872 fps=185 q=-0.0 size=N/A time=00:03:23.20 bitrate=N/A speed=7.72x    frame= 4968 fps=185 q=-0.0 size=N/A time=00:03:27.20 bitrate=N/A speed=7.72x    frame= 5063 fps=185 q=-0.0 size=N/A time=00:03:31.16 bitrate=N/A speed=7.72x    frame= 5159 fps=185 q=-0.0 size=N/A time=00:03:35.17 bitrate=N/A speed=7.72x    frame= 5253 fps=185 q=-0.0 size=N/A time=00:03:39.09 bitrate=N/A speed=7.72x    frame= 5342 fps=185 q=-0.0 size=N/A time=00:03:42.80 bitrate=N/A speed=7.71x    frame= 5444 fps=185 q=-0.0 size=N/A time=00:03:47.06 bitrate=N/A speed=7.72x    frame= 5540 fps=185 q=-0.0 size=N/A time=00:03:51.06 bitrate=N/A speed=7.72x    frame= 5634 fps=185 q=-0.0 size=N/A time=00:03:54.98 bitrate=N/A speed=7.72x    frame= 5725 fps=185 q=-0.0 size=N/A time=00:03:58.78 bitrate=N/A speed=7.71x    frame= 5823 fps=185 q=-0.0 size=N/A time=00:04:02.86 bitrate=N/A speed=7.72x    frame= 5921 fps=185 q=-0.0 size=N/A time=00:04:06.95 bitrate=N/A speed=7.72x    frame= 6016 fps=185 q=-0.0 size=N/A time=00:04:10.91 bitrate=N/A speed=7.72x    frame= 6108 fps=185 q=-0.0 size=N/A time=00:04:14.75 bitrate=N/A speed=7.71x    frame= 6209 fps=185 q=-0.0 size=N/A time=00:04:18.96 bitrate=N/A speed=7.72x    frame= 6307 fps=185 q=-0.0 size=N/A time=00:04:23.05 bitrate=N/A speed=7.72x    frame= 6402 fps=185 q=-0.0 size=N/A time=00:04:27.01 bitrate=N/A speed=7.73x    frame= 6497 fps=185 q=-0.0 size=N/A time=00:04:30.97 bitrate=N/A speed=7.72x    frame= 6593 fps=185 q=-0.0 size=N/A time=00:04:34.98 bitrate=N/A speed=7.72x    frame= 6687 fps=185 q=-0.0 size=N/A time=00:04:38.90 bitrate=N/A speed=7.72x    frame= 6780 fps=185 q=-0.0 size=N/A time=00:04:42.78 bitrate=N/A speed=7.72x    frame= 6880 fps=185 q=-0.0 size=N/A time=00:04:46.95 bitrate=N/A speed=7.72x    frame= 6980 fps=185 q=-0.0 size=N/A time=00:04:51.12 bitrate=N/A speed=7.73x    frame= 7071 fps=185 q=-0.0 size=N/A time=00:04:54.91 bitrate=N/A speed=7.72x    frame= 7166 fps=185 q=-0.0 size=N/A time=00:04:58.88 bitrate=N/A speed=7.72x    frame= 7264 fps=185 q=-0.0 size=N/A time=00:05:02.96 bitrate=N/A speed=7.72x    frame= 7360 fps=185 q=-0.0 size=N/A time=00:05:06.97 bitrate=N/A speed=7.73x    frame= 7457 fps=185 q=-0.0 size=N/A time=00:05:11.01 bitrate=N/A speed=7.73x    frame= 7552 fps=185 q=-0.0 size=N/A time=00:05:14.98 bitrate=N/A speed=7.73x    frame= 7644 fps=185 q=-0.0 size=N/A time=00:05:18.81 bitrate=N/A speed=7.72x    frame= 7748 fps=185 q=-0.0 size=N/A time=00:05:23.15 bitrate=N/A speed=7.73x    frame= 7848 fps=185 q=-0.0 size=N/A time=00:05:27.32 bitrate=N/A speed=7.73x    frame= 7941 fps=185 q=-0.0 size=N/A time=00:05:31.20 bitrate=N/A speed=7.73x    frame= 8040 fps=185 q=-0.0 size=N/A time=00:05:35.33 bitrate=N/A speed=7.74x    frame= 8134 fps=185 q=-0.0 size=N/A time=00:05:39.25 bitrate=N/A speed=7.73x    frame= 8220 fps=185 q=-0.0 size=N/A time=00:05:42.84 bitrate=N/A speed=7.73x    frame= 8328 fps=186 q=-0.0 size=N/A time=00:05:47.34 bitrate=N/A speed=7.74x    frame= 8425 fps=186 q=-0.0 size=N/A time=00:05:51.39 bitrate=N/A speed=7.74x    frame= 8524 fps=186 q=-0.0 size=N/A time=00:05:55.52 bitrate=N/A speed=7.74x    frame= 8622 fps=186 q=-0.0 size=N/A time=00:05:59.60 bitrate=N/A speed=7.74x    frame= 8719 fps=186 q=-0.0 size=N/A time=00:06:03.65 bitrate=N/A speed=7.74x    frame= 8816 fps=186 q=-0.0 size=N/A time=00:06:07.70 bitrate=N/A speed=7.74x    frame= 8916 fps=186 q=-0.0 size=N/A time=00:06:11.87 bitrate=N/A speed=7.75x    frame= 9010 fps=186 q=-0.0 size=N/A time=00:06:15.79 bitrate=N/A speed=7.74x    frame= 9104 fps=186 q=-0.0 size=N/A time=00:06:19.71 bitrate=N/A speed=7.74x    frame= 9201 fps=186 q=-0.0 size=N/A time=00:06:23.75 bitrate=N/A speed=7.74x    frame= 9295 fps=186 q=-0.0 size=N/A time=00:06:27.67 bitrate=N/A speed=7.74x    frame= 9393 fps=186 q=-0.0 size=N/A time=00:06:31.76 bitrate=N/A speed=7.75x    frame= 9490 fps=186 q=-0.0 size=N/A time=00:06:35.81 bitrate=N/A speed=7.74x    frame= 9587 fps=186 q=-0.0 size=N/A time=00:06:39.85 bitrate=N/A speed=7.74x    frame= 9677 fps=186 q=-0.0 size=N/A time=00:06:43.61 bitrate=N/A speed=7.74x    frame= 9767 fps=185 q=-0.0 size=N/A time=00:06:47.36 bitrate=N/A speed=7.74x    frame= 9865 fps=186 q=-0.0 size=N/A time=00:06:51.45 bitrate=N/A speed=7.74x    frame= 9963 fps=186 q=-0.0 size=N/A time=00:06:55.54 bitrate=N/A speed=7.74x    frame=10064 fps=186 q=-0.0 size=N/A time=00:06:59.75 bitrate=N/A speed=7.74x    frame=10159 fps=186 q=-0.0 size=N/A time=00:07:03.71 bitrate=N/A speed=7.74x    frame=10256 fps=186 q=-0.0 size=N/A time=00:07:07.76 bitrate=N/A speed=7.74x    frame=10353 fps=186 q=-0.0 size=N/A time=00:07:11.80 bitrate=N/A speed=7.74x    frame=10446 fps=186 q=-0.0 size=N/A time=00:07:15.68 bitrate=N/A speed=7.74x    frame=10541 fps=186 q=-0.0 size=N/A time=00:07:19.64 bitrate=N/A speed=7.74x    frame=10639 fps=186 q=-0.0 size=N/A time=00:07:23.73 bitrate=N/A speed=7.74x    frame=10733 fps=186 q=-0.0 size=N/A time=00:07:27.65 bitrate=N/A speed=7.74x    frame=10832 fps=186 q=-0.0 size=N/A time=00:07:31.78 bitrate=N/A speed=7.74x    frame=10924 fps=186 q=-0.0 size=N/A time=00:07:35.62 bitrate=N/A speed=7.74x    frame=11025 fps=186 q=-0.0 size=N/A time=00:07:39.83 bitrate=N/A speed=7.75x    frame=11127 fps=186 q=-0.0 size=N/A time=00:07:44.08 bitrate=N/A speed=7.75x    frame=11228 fps=186 q=-0.0 size=N/A time=00:07:48.30 bitrate=N/A speed=7.75x    frame=11316 fps=186 q=-0.0 size=N/A time=00:07:51.97 bitrate=N/A speed=7.75x    frame=11419 fps=186 q=-0.0 size=N/A time=00:07:56.26 bitrate=N/A speed=7.75x    frame=11515 fps=186 q=-0.0 size=N/A time=00:08:00.27 bitrate=N/A speed=7.75x    frame=11611 fps=186 q=-0.0 size=N/A time=00:08:04.27 bitrate=N/A speed=7.75x    frame=11705 fps=186 q=-0.0 size=N/A time=00:08:08.19 bitrate=N/A speed=7.75x    frame=11805 fps=186 q=-0.0 size=N/A time=00:08:12.36 bitrate=N/A speed=7.75x    frame=11890 fps=186 q=-0.0 size=N/A time=00:08:15.91 bitrate=N/A speed=7.75x    frame=12001 fps=186 q=-0.0 size=N/A time=00:08:20.54 bitrate=N/A speed=7.76x    frame=12093 fps=186 q=-0.0 size=N/A time=00:08:24.37 bitrate=N/A speed=7.76x    frame=12193 fps=186 q=-0.0 size=N/A time=00:08:28.54 bitrate=N/A speed=7.76x    frame=12288 fps=186 q=-0.0 size=N/A time=00:08:32.51 bitrate=N/A speed=7.76x    frame=12379 fps=186 q=-0.0 size=N/A time=00:08:36.30 bitrate=N/A speed=7.75x    frame=12477 fps=186 q=-0.0 size=N/A time=00:08:40.39 bitrate=N/A speed=7.76x    frame=12575 fps=186 q=-0.0 size=N/A time=00:08:44.48 bitrate=N/A speed=7.76x    frame=12671 fps=186 q=-0.0 size=N/A time=00:08:48.48 bitrate=N/A speed=7.76x    frame=12769 fps=186 q=-0.0 size=N/A time=00:08:52.57 bitrate=N/A speed=7.76x    frame=12866 fps=186 q=-0.0 size=N/A time=00:08:56.61 bitrate=N/A speed=7.76x    frame=12959 fps=186 q=-0.0 size=N/A time=00:09:00.49 bitrate=N/A speed=7.76x    frame=13058 fps=186 q=-0.0 size=N/A time=00:09:04.62 bitrate=N/A speed=7.76x    frame=13153 fps=186 q=-0.0 size=N/A time=00:09:08.58 bitrate=N/A speed=7.76x    frame=13249 fps=186 q=-0.0 size=N/A time=00:09:12.59 bitrate=N/A speed=7.76x    frame=13343 fps=186 q=-0.0 size=N/A time=00:09:16.51 bitrate=N/A speed=7.76x    frame=13438 fps=186 q=-0.0 size=N/A time=00:09:20.47 bitrate=N/A speed=7.76x    frame=13536 fps=186 q=-0.0 size=N/A time=00:09:24.56 bitrate=N/A speed=7.76x    frame=13626 fps=186 q=-0.0 size=N/A time=00:09:28.31 bitrate=N/A speed=7.75x    frame=13725 fps=186 q=-0.0 size=N/A time=00:09:32.44 bitrate=N/A speed=7.76x    frame=13825 fps=186 q=-0.0 size=N/A time=00:09:36.61 bitrate=N/A speed=7.76x    frame=13919 fps=186 q=-0.0 size=N/A time=00:09:40.53 bitrate=N/A speed=7.76x    frame=14018 fps=186 q=-0.0 size=N/A time=00:09:44.66 bitrate=N/A speed=7.76x    frame=14115 fps=186 q=-0.0 size=N/A time=00:09:48.71 bitrate=N/A speed=7.76x    frame=14211 fps=186 q=-0.0 size=N/A time=00:09:52.71 bitrate=N/A speed=7.76x    frame=14306 fps=186 q=-0.0 size=N/A time=00:09:56.67 bitrate=N/A speed=7.76x    frame=14401 fps=186 q=-0.0 size=N/A time=00:10:00.64 bitrate=N/A speed=7.76x    frame=14498 fps=186 q=-0.0 size=N/A time=00:10:04.68 bitrate=N/A speed=7.76x    frame=14595 fps=186 q=-0.0 size=N/A time=00:10:08.73 bitrate=N/A speed=7.76x    frame=14691 fps=186 q=-0.0 size=N/A time=00:10:12.73 bitrate=N/A speed=7.76x    frame=14786 fps=186 q=-0.0 size=N/A time=00:10:16.69 bitrate=N/A speed=7.76x    frame=14888 fps=186 q=-0.0 size=N/A time=00:10:20.95 bitrate=N/A speed=7.76x    frame=14976 fps=186 q=-0.0 size=N/A time=00:10:24.62 bitrate=N/A speed=7.76x    frame=15082 fps=186 q=-0.0 size=N/A time=00:10:29.04 bitrate=N/A speed=7.76x    frame=15176 fps=186 q=-0.0 size=N/A time=00:10:32.96 bitrate=N/A speed=7.76x    frame=15274 fps=186 q=-0.0 size=N/A time=00:10:37.05 bitrate=N/A speed=7.76x    frame=15366 fps=186 q=-0.0 size=N/A time=00:10:40.89 bitrate=N/A speed=7.76x    frame=15462 fps=186 q=-0.0 size=N/A time=00:10:44.89 bitrate=N/A speed=7.76x    frame=15560 fps=186 q=-0.0 size=N/A time=00:10:48.98 bitrate=N/A speed=7.76x    frame=15656 fps=186 q=-0.0 size=N/A time=00:10:52.98 bitrate=N/A speed=7.76x    frame=15754 fps=186 q=-0.0 size=N/A time=00:10:57.07 bitrate=N/A speed=7.76x    frame=15853 fps=186 q=-0.0 size=N/A time=00:11:01.20 bitrate=N/A speed=7.76x    frame=15944 fps=186 q=-0.0 size=N/A time=00:11:04.99 bitrate=N/A speed=7.76x    frame=16042 fps=186 q=-0.0 size=N/A time=00:11:09.08 bitrate=N/A speed=7.76x    frame=16140 fps=186 q=-0.0 size=N/A time=00:11:13.17 bitrate=N/A speed=7.76x    frame=16238 fps=186 q=-0.0 size=N/A time=00:11:17.25 bitrate=N/A speed=7.76x    frame=16324 fps=186 q=-0.0 size=N/A time=00:11:20.84 bitrate=N/A speed=7.76x    frame=16418 fps=186 q=-0.0 size=N/A time=00:11:24.76 bitrate=N/A speed=7.76x    frame=16521 fps=186 q=-0.0 size=N/A time=00:11:29.06 bitrate=N/A speed=7.76x    frame=16616 fps=186 q=-0.0 size=N/A time=00:11:33.02 bitrate=N/A speed=7.76x    frame=16712 fps=186 q=-0.0 size=N/A time=00:11:37.02 bitrate=N/A speed=7.76x    frame=16810 fps=186 q=-0.0 size=N/A time=00:11:41.11 bitrate=N/A speed=7.76x    frame=16904 fps=186 q=-0.0 size=N/A time=00:11:45.03 bitrate=N/A speed=7.76x    frame=17002 fps=186 q=-0.0 size=N/A time=00:11:49.12 bitrate=N/A speed=7.76x    frame=17097 fps=186 q=-0.0 size=N/A time=00:11:53.08 bitrate=N/A speed=7.76x    frame=17184 fps=186 q=-0.0 size=N/A time=00:11:56.71 bitrate=N/A speed=7.76x    frame=17288 fps=186 q=-0.0 size=N/A time=00:12:01.05 bitrate=N/A speed=7.76x    frame=17381 fps=186 q=-0.0 size=N/A time=00:12:04.93 bitrate=N/A speed=7.76x    frame=17483 fps=186 q=-0.0 size=N/A time=00:12:09.18 bitrate=N/A speed=7.76x    frame=17573 fps=186 q=-0.0 size=N/A time=00:12:12.94 bitrate=N/A speed=7.76x    frame=17677 fps=186 q=-0.0 size=N/A time=00:12:17.27 bitrate=N/A speed=7.76x    frame=17771 fps=186 q=-0.0 size=N/A time=00:12:21.19 bitrate=N/A speed=7.76x    frame=17869 fps=186 q=-0.0 size=N/A time=00:12:25.28 bitrate=N/A speed=7.76x    frame=17960 fps=186 q=-0.0 size=N/A time=00:12:29.08 bitrate=N/A speed=7.76x    frame=18063 fps=186 q=-0.0 size=N/A time=00:12:33.37 bitrate=N/A speed=7.77x    frame=18159 fps=186 q=-0.0 size=N/A time=00:12:37.38 bitrate=N/A speed=7.77x    frame=18257 fps=186 q=-0.0 size=N/A time=00:12:41.46 bitrate=N/A speed=7.77x    frame=18352 fps=186 q=-0.0 size=N/A time=00:12:45.43 bitrate=N/A speed=7.76x    frame=18453 fps=186 q=-0.0 size=N/A time=00:12:49.64 bitrate=N/A speed=7.77x    frame=18553 fps=186 q=-0.0 size=N/A time=00:12:53.81 bitrate=N/A speed=7.77x    frame=18647 fps=186 q=-0.0 size=N/A time=00:12:57.73 bitrate=N/A speed=7.77x    frame=18743 fps=186 q=-0.0 size=N/A time=00:13:01.73 bitrate=N/A speed=7.77x    frame=18837 fps=186 q=-0.0 size=N/A time=00:13:05.65 bitrate=N/A speed=7.77x    frame=18932 fps=186 q=-0.0 size=N/A time=00:13:09.62 bitrate=N/A speed=7.77x    frame=19030 fps=186 q=-0.0 size=N/A time=00:13:13.70 bitrate=N/A speed=7.77x    frame=19120 fps=186 q=-0.0 size=N/A time=00:13:17.46 bitrate=N/A speed=7.76x    frame=19212 fps=186 q=-0.0 size=N/A time=00:13:21.30 bitrate=N/A speed=7.76x    frame=19311 fps=186 q=-0.0 size=N/A time=00:13:25.42 bitrate=N/A speed=7.76x    frame=19412 fps=186 q=-0.0 size=N/A time=00:13:29.64 bitrate=N/A speed=7.76x    frame=19508 fps=186 q=-0.0 size=N/A time=00:13:33.64 bitrate=N/A speed=7.77x    frame=19605 fps=186 q=-0.0 size=N/A time=00:13:37.69 bitrate=N/A speed=7.76x    frame=19699 fps=186 q=-0.0 size=N/A time=00:13:41.61 bitrate=N/A speed=7.76x    frame=19794 fps=186 q=-0.0 size=N/A time=00:13:45.57 bitrate=N/A speed=7.76x    frame=19891 fps=186 q=-0.0 size=N/A time=00:13:49.62 bitrate=N/A speed=7.76x    frame=19991 fps=186 q=-0.0 size=N/A time=00:13:53.79 bitrate=N/A speed=7.76x    frame=20079 fps=186 q=-0.0 size=N/A time=00:13:57.46 bitrate=N/A speed=7.76x    frame=20179 fps=186 q=-0.0 size=N/A time=00:14:01.63 bitrate=N/A speed=7.76x    frame=20280 fps=186 q=-0.0 size=N/A time=00:14:05.84 bitrate=N/A speed=7.77x    frame=20377 fps=186 q=-0.0 size=N/A time=00:14:09.89 bitrate=N/A speed=7.77x    frame=20478 fps=186 q=-0.0 size=N/A time=00:14:14.10 bitrate=N/A speed=7.77x    frame=20575 fps=186 q=-0.0 size=N/A time=00:14:18.14 bitrate=N/A speed=7.77x    frame=20668 fps=186 q=-0.0 size=N/A time=00:14:22.02 bitrate=N/A speed=7.77x    frame=20756 fps=186 q=-0.0 size=N/A time=00:14:25.69 bitrate=N/A speed=7.76x    frame=20855 fps=186 q=-0.0 size=N/A time=00:14:29.82 bitrate=N/A speed=7.77x    frame=20953 fps=186 q=-0.0 size=N/A time=00:14:33.91 bitrate=N/A speed=7.77x    frame=21046 fps=186 q=-0.0 size=N/A time=00:14:37.79 bitrate=N/A speed=7.76x    frame=21135 fps=186 q=-0.0 size=N/A time=00:14:41.50 bitrate=N/A speed=7.76x    frame=21235 fps=186 q=-0.0 size=N/A time=00:14:45.67 bitrate=N/A speed=7.76x    frame=21331 fps=186 q=-0.0 size=N/A time=00:14:49.68 bitrate=N/A speed=7.76x    frame=21429 fps=186 q=-0.0 size=N/A time=00:14:53.76 bitrate=N/A speed=7.76x    frame=21524 fps=186 q=-0.0 size=N/A time=00:14:57.73 bitrate=N/A speed=7.76x    frame=21619 fps=186 q=-0.0 size=N/A time=00:15:01.69 bitrate=N/A speed=7.76x    frame=21714 fps=186 q=-0.0 size=N/A time=00:15:05.65 bitrate=N/A speed=7.76x    frame=21813 fps=186 q=-0.0 size=N/A time=00:15:09.78 bitrate=N/A speed=7.76x    frame=21911 fps=186 q=-0.0 size=N/A time=00:15:13.87 bitrate=N/A speed=7.76x    frame=21998 fps=186 q=-0.0 size=N/A time=00:15:17.49 bitrate=N/A speed=7.76x    frame=22102 fps=186 q=-0.0 size=N/A time=00:15:21.83 bitrate=N/A speed=7.76x    frame=22196 fps=186 q=-0.0 size=N/A time=00:15:25.75 bitrate=N/A speed=7.76x    frame=22292 fps=186 q=-0.0 size=N/A time=00:15:29.76 bitrate=N/A speed=7.76x    frame=22387 fps=186 q=-0.0 size=N/A time=00:15:33.72 bitrate=N/A speed=7.76x    frame=22482 fps=186 q=-0.0 size=N/A time=00:15:37.68 bitrate=N/A speed=7.76x    frame=22582 fps=186 q=-0.0 size=N/A time=00:15:41.85 bitrate=N/A speed=7.76x    frame=22678 fps=186 q=-0.0 size=N/A time=00:15:45.86 bitrate=N/A speed=7.77x    frame=22770 fps=186 q=-0.0 size=N/A time=00:15:49.69 bitrate=N/A speed=7.76x    frame=22871 fps=186 q=-0.0 size=N/A time=00:15:53.91 bitrate=N/A speed=7.76x    frame=22964 fps=186 q=-0.0 size=N/A time=00:15:57.79 bitrate=N/A speed=7.76x    frame=23058 fps=186 q=-0.0 size=N/A time=00:16:01.71 bitrate=N/A speed=7.76x    frame=23153 fps=186 q=-0.0 size=N/A time=00:16:05.67 bitrate=N/A speed=7.76x    frame=23254 fps=186 q=-0.0 size=N/A time=00:16:09.88 bitrate=N/A speed=7.76x    frame=23348 fps=186 q=-0.0 size=N/A time=00:16:13.80 bitrate=N/A speed=7.76x    frame=23444 fps=186 q=-0.0 size=N/A time=00:16:17.81 bitrate=N/A speed=7.76x    frame=23535 fps=186 q=-0.0 size=N/A time=00:16:21.60 bitrate=N/A speed=7.76x    frame=23633 fps=186 q=-0.0 size=N/A time=00:16:25.69 bitrate=N/A speed=7.76x    frame=23729 fps=186 q=-0.0 size=N/A time=00:16:29.69 bitrate=N/A speed=7.76x    frame=23817 fps=186 q=-0.0 size=N/A time=00:16:33.36 bitrate=N/A speed=7.76x    frame=23918 fps=186 q=-0.0 size=N/A time=00:16:37.57 bitrate=N/A speed=7.76x    frame=24015 fps=186 q=-0.0 size=N/A time=00:16:41.62 bitrate=N/A speed=7.76x    frame=24113 fps=186 q=-0.0 size=N/A time=00:16:45.71 bitrate=N/A speed=7.76x    frame=24201 fps=186 q=-0.0 size=N/A time=00:16:49.38 bitrate=N/A speed=7.76x    frame=24298 fps=186 q=-0.0 size=N/A time=00:16:53.42 bitrate=N/A speed=7.76x    frame=24396 fps=186 q=-0.0 size=N/A time=00:16:57.51 bitrate=N/A speed=7.76x    frame=24499 fps=186 q=-0.0 size=N/A time=00:17:01.81 bitrate=N/A speed=7.76x    frame=24591 fps=186 q=-0.0 size=N/A time=00:17:05.64 bitrate=N/A speed=7.76x    frame=24687 fps=186 q=-0.0 size=N/A time=00:17:09.65 bitrate=N/A speed=7.76x    frame=24781 fps=186 q=-0.0 size=N/A time=00:17:13.57 bitrate=N/A speed=7.76x    frame=24873 fps=186 q=-0.0 size=N/A time=00:17:17.41 bitrate=N/A speed=7.76x    frame=24973 fps=186 q=-0.0 size=N/A time=00:17:21.58 bitrate=N/A speed=7.76x    frame=25069 fps=186 q=-0.0 size=N/A time=00:17:25.58 bitrate=N/A speed=7.76x    frame=25160 fps=186 q=-0.0 size=N/A time=00:17:29.38 bitrate=N/A speed=7.76x    frame=25262 fps=186 q=-0.0 size=N/A time=00:17:33.63 bitrate=N/A speed=7.76x    frame=25349 fps=186 q=-0.0 size=N/A time=00:17:37.26 bitrate=N/A speed=7.76x    frame=25454 fps=186 q=-0.0 size=N/A time=00:17:41.64 bitrate=N/A speed=7.76x    frame=25544 fps=186 q=-0.0 size=N/A time=00:17:45.39 bitrate=N/A speed=7.76x    frame=25644 fps=186 q=-0.0 size=N/A time=00:17:49.56 bitrate=N/A speed=7.76x    frame=25746 fps=186 q=-0.0 size=N/A time=00:17:53.82 bitrate=N/A speed=7.76x    frame=25841 fps=186 q=-0.0 size=N/A time=00:17:57.78 bitrate=N/A speed=7.76x    frame=25940 fps=186 q=-0.0 size=N/A time=00:18:01.91 bitrate=N/A speed=7.76x    frame=26037 fps=186 q=-0.0 size=N/A time=00:18:05.95 bitrate=N/A speed=7.76x    frame=26133 fps=186 q=-0.0 size=N/A time=00:18:09.96 bitrate=N/A speed=7.76x    frame=26230 fps=186 q=-0.0 size=N/A time=00:18:14.00 bitrate=N/A speed=7.76x    frame=26325 fps=186 q=-0.0 size=N/A time=00:18:17.97 bitrate=N/A speed=7.76x    frame=26423 fps=186 q=-0.0 size=N/A time=00:18:22.05 bitrate=N/A speed=7.76x    frame=26508 fps=186 q=-0.0 size=N/A time=00:18:25.60 bitrate=N/A speed=7.76x    frame=26612 fps=186 q=-0.0 size=N/A time=00:18:29.94 bitrate=N/A speed=7.76x    frame=26715 fps=186 q=-0.0 size=N/A time=00:18:34.23 bitrate=N/A speed=7.77x    frame=26814 fps=186 q=-0.0 size=N/A time=00:18:38.36 bitrate=N/A speed=7.77x    frame=26911 fps=186 q=-0.0 size=N/A time=00:18:42.41 bitrate=N/A speed=7.77x    frame=27007 fps=186 q=-0.0 size=N/A time=00:18:46.41 bitrate=N/A speed=7.77x    frame=27101 fps=186 q=-0.0 size=N/A time=00:18:50.33 bitrate=N/A speed=7.77x    frame=27198 fps=186 q=-0.0 size=N/A time=00:18:54.38 bitrate=N/A speed=7.77x    frame=27294 fps=186 q=-0.0 size=N/A time=00:18:58.38 bitrate=N/A speed=7.77x    frame=27394 fps=186 q=-0.0 size=N/A time=00:19:02.55 bitrate=N/A speed=7.77x    frame=27491 fps=186 q=-0.0 size=N/A time=00:19:06.60 bitrate=N/A speed=7.77x    frame=27590 fps=186 q=-0.0 size=N/A time=00:19:10.73 bitrate=N/A speed=7.77x    frame=27688 fps=186 q=-0.0 size=N/A time=00:19:14.82 bitrate=N/A speed=7.77x    frame=27782 fps=186 q=-0.0 size=N/A time=00:19:18.74 bitrate=N/A speed=7.77x    frame=27879 fps=186 q=-0.0 size=N/A time=00:19:22.78 bitrate=N/A speed=7.77x    frame=27973 fps=186 q=-0.0 size=N/A time=00:19:26.70 bitrate=N/A speed=7.77x    frame=28070 fps=186 q=-0.0 size=N/A time=00:19:30.75 bitrate=N/A speed=7.77x    frame=28166 fps=186 q=-0.0 size=N/A time=00:19:34.75 bitrate=N/A speed=7.77x    frame=28259 fps=186 q=-0.0 size=N/A time=00:19:38.63 bitrate=N/A speed=7.77x    frame=28357 fps=186 q=-0.0 size=N/A time=00:19:42.72 bitrate=N/A speed=7.77x    frame=28450 fps=186 q=-0.0 size=N/A time=00:19:46.60 bitrate=N/A speed=7.77x    frame=28550 fps=186 q=-0.0 size=N/A time=00:19:50.77 bitrate=N/A speed=7.77x    frame=28645 fps=186 q=-0.0 size=N/A time=00:19:54.73 bitrate=N/A speed=7.77x    frame=28743 fps=186 q=-0.0 size=N/A time=00:19:58.82 bitrate=N/A speed=7.77x    frame=28838 fps=186 q=-0.0 size=N/A time=00:20:02.78 bitrate=N/A speed=7.77x    frame=28926 fps=186 q=-0.0 size=N/A time=00:20:06.45 bitrate=N/A speed=7.77x    frame=29027 fps=186 q=-0.0 size=N/A time=00:20:10.66 bitrate=N/A speed=7.77x    frame=29123 fps=186 q=-0.0 size=N/A time=00:20:14.67 bitrate=N/A speed=7.77x    frame=29221 fps=186 q=-0.0 size=N/A time=00:20:18.75 bitrate=N/A speed=7.77x    frame=29321 fps=186 q=-0.0 size=N/A time=00:20:22.93 bitrate=N/A speed=7.77x    frame=29415 fps=186 q=-0.0 size=N/A time=00:20:26.85 bitrate=N/A speed=7.77x    frame=29508 fps=186 q=-0.0 size=N/A time=00:20:30.72 bitrate=N/A speed=7.77x    frame=29607 fps=186 q=-0.0 size=N/A time=00:20:34.85 bitrate=N/A speed=7.77x    frame=29706 fps=186 q=-0.0 size=N/A time=00:20:38.98 bitrate=N/A speed=7.77x    frame=29796 fps=186 q=-0.0 size=N/A time=00:20:42.74 bitrate=N/A speed=7.77x    frame=29901 fps=186 q=-0.0 size=N/A time=00:20:47.12 bitrate=N/A speed=7.77x    frame=29996 fps=186 q=-0.0 size=N/A time=00:20:51.08 bitrate=N/A speed=7.77x    frame=30096 fps=186 q=-0.0 size=N/A time=00:20:55.25 bitrate=N/A speed=7.77x    frame=30193 fps=186 q=-0.0 size=N/A time=00:20:59.29 bitrate=N/A speed=7.77x    frame=30291 fps=186 q=-0.0 size=N/A time=00:21:03.38 bitrate=N/A speed=7.77x    frame=30384 fps=186 q=-0.0 size=N/A time=00:21:07.26 bitrate=N/A speed=7.77x    frame=30480 fps=186 q=-0.0 size=N/A time=00:21:11.27 bitrate=N/A speed=7.77x    frame=30571 fps=186 q=-0.0 size=N/A time=00:21:15.06 bitrate=N/A speed=7.77x    frame=30675 fps=186 q=-0.0 size=N/A time=00:21:19.40 bitrate=N/A speed=7.77x    frame=30772 fps=186 q=-0.0 size=N/A time=00:21:23.44 bitrate=N/A speed=7.77x    frame=30873 fps=186 q=-0.0 size=N/A time=00:21:27.66 bitrate=N/A speed=7.77x    frame=30970 fps=186 q=-0.0 size=N/A time=00:21:31.70 bitrate=N/A speed=7.77x    frame=31068 fps=186 q=-0.0 size=N/A time=00:21:35.79 bitrate=N/A speed=7.77x    frame=31165 fps=186 q=-0.0 size=N/A time=00:21:39.84 bitrate=N/A speed=7.77x    frame=31270 fps=186 q=-0.0 size=N/A time=00:21:44.21 bitrate=N/A speed=7.78x    frame=31358 fps=186 q=-0.0 size=N/A time=00:21:47.88 bitrate=N/A speed=7.77x    frame=31470 fps=186 q=-0.0 size=N/A time=00:21:52.56 bitrate=N/A speed=7.78x    frame=31569 fps=186 q=-0.0 size=N/A time=00:21:56.69 bitrate=N/A speed=7.78x    frame=31658 fps=186 q=-0.0 size=N/A time=00:22:00.40 bitrate=N/A speed=7.78x    frame=31761 fps=186 q=-0.0 size=N/A time=00:22:04.69 bitrate=N/A speed=7.78x    frame=31854 fps=186 q=-0.0 size=N/A time=00:22:08.57 bitrate=N/A speed=7.78x    frame=31952 fps=186 q=-0.0 size=N/A time=00:22:12.66 bitrate=N/A speed=7.78x    frame=32048 fps=186 q=-0.0 size=N/A time=00:22:16.66 bitrate=N/A speed=7.78x    frame=32147 fps=187 q=-0.0 size=N/A time=00:22:20.79 bitrate=N/A speed=7.78x    frame=32236 fps=186 q=-0.0 size=N/A time=00:22:24.50 bitrate=N/A speed=7.78x    frame=32335 fps=186 q=-0.0 size=N/A time=00:22:28.63 bitrate=N/A speed=7.78x    frame=32433 fps=186 q=-0.0 size=N/A time=00:22:32.72 bitrate=N/A speed=7.78x    frame=32528 fps=186 q=-0.0 size=N/A time=00:22:36.68 bitrate=N/A speed=7.78x    frame=32618 fps=186 q=-0.0 size=N/A time=00:22:40.44 bitrate=N/A speed=7.78x    frame=32722 fps=186 q=-0.0 size=N/A time=00:22:44.78 bitrate=N/A speed=7.78x    frame=32818 fps=186 q=-0.0 size=N/A time=00:22:48.78 bitrate=N/A speed=7.78x    frame=32917 fps=187 q=-0.0 size=N/A time=00:22:52.91 bitrate=N/A speed=7.78x    frame=33012 fps=187 q=-0.0 size=N/A time=00:22:56.87 bitrate=N/A speed=7.78x    [Parsed_psnr_10 @ 0000024dc8cbb380] PSNR y:45.955083 u:50.339896 v:49.609816 average:46.928348 min:39.697487 max:52.936686
[out#0/null @ 0000024dc40d12c0] video:14218KiB audio:259264KiB subtitle:0KiB other streams:0KiB global headers:0KiB muxing overhead: unknown
frame=33088 fps=187 q=-0.0 Lsize=N/A time=00:23:00.04 bitrate=N/A speed=7.78x    
